<svg xmlns="http://www.w3.org/2000/svg" viewBox="0 0 64 64"><g data-name="Jewelry"><path fill="#d9e3e9" fill-rule="evenodd" d="M19,24.27V22.63a6.72,6.72,0,0,0,4.94-6.4,6.77,6.77,0,0,0-13.54,0,1.83,1.83,0,1,0,3.66,0,3.11,3.11,0,1,1,3.11,3.12,1.82,1.82,0,0,0-1.83,1.82v3.1l1.43.76Z"/><path fill="#c5cfd9" fill-rule="evenodd" d="M15,13.12a3.08,3.08,0,0,0-3.11,3.11,1.83,1.83,0,0,1-.77,1.49,1.86,1.86,0,0,0,1.06.34,1.83,1.83,0,0,0,1.83-1.83A3.09,3.09,0,0,1,16.1,13.3,3.37,3.37,0,0,0,15,13.12Zm2.12-3.66a6.23,6.23,0,0,0-1.06.09,6.8,6.8,0,0,1,5.71,6.68,6.72,6.72,0,0,1-4.94,6.4v1.64H19V22.63a6.72,6.72,0,0,0,4.94-6.4A6.8,6.8,0,0,0,17.16,9.46Z"/><path fill="#dc578f" fill-rule="evenodd" d="M12.31,49.68a4.86,4.86,0,1,0,9.71,0l2-4.68-6.87-3.75-6.52,3.09Z"/><path fill="#de75a4" fill-rule="evenodd" d="M7.43,41.26a4.86,4.86,0,1,0,4.86,8.41l4.88-8.43L12,37.88Z"/><path fill="#e38fb6" fill-rule="evenodd" d="M22,49.67a4.86,4.86,0,1,0,4.86-8.41L22,37.83l-4.77,3.42Z"/><path fill="#f5e165" fill-rule="evenodd" d="M14.94,28.49,14.07,26a1.29,1.29,0,0,1,1.26-1.76H19A1.3,1.3,0,0,1,20.26,26l-.88,2.45-1.61,1.44Z"/><path fill="#dc578f" fill-rule="evenodd" d="M17.17,41.24,22.43,37,22,32.81a4.86,4.86,0,1,0-9.71,0v3.65Z"/><path fill="#de75a4" fill-rule="evenodd" d="M17.17,41.24h0Z"/><path fill="#e38fb6" fill-rule="evenodd" d="M7.43,41.24h9.74l-4.86-8.42h0A4.86,4.86,0,0,0,5.65,34.6h0A4.87,4.87,0,0,0,7.43,41.24Z"/><path fill="#de75a4" fill-rule="evenodd" d="M22,32.82c-1.61,2.81-3.24,5.61-4.86,8.42H26.9A4.86,4.86,0,0,0,22,32.82Z"/><path fill="#faf3ae" fill-rule="evenodd" d="M22.68,41.25a5.52,5.52,0,1,1-5.51-5.52A5.52,5.52,0,0,1,22.68,41.25Z"/><path fill="#f5e165" fill-rule="evenodd" d="M17.17,35.73a5.5,5.5,0,0,0-1.51.21,5.51,5.51,0,0,1,0,10.61,5.93,5.93,0,0,0,1.51.22,5.52,5.52,0,0,0,0-11Z"/><path fill="#de75a4" fill-rule="evenodd" d="M25.38,40.2a4.88,4.88,0,0,1-1.25,1h0l0,0a4.85,4.85,0,0,1-1.05,8.86,4.86,4.86,0,0,0,3.82-8.86Z"/><path fill="#dc578f" fill-rule="evenodd" d="M24.34,32.17a5,5,0,0,0-1.26.2,4.86,4.86,0,0,1,1.05,8.87H26.9a4.86,4.86,0,0,0-2.56-9.07Z"/><path fill="#d9e3e9" fill-rule="evenodd" d="M48.65,24.27V22.63a6.72,6.72,0,0,0,4.94-6.4,6.77,6.77,0,1,0-13.53,0,1.83,1.83,0,1,0,3.65,0,3.12,3.12,0,1,1,3.11,3.12A1.82,1.82,0,0,0,45,21.17v3.1l1.42.76Z"/><path fill="#c5cfd9" fill-rule="evenodd" d="M44.7,13.12a3.08,3.08,0,0,0-3.11,3.11,1.81,1.81,0,0,1-.77,1.49,1.86,1.86,0,0,0,1.06.34,1.82,1.82,0,0,0,1.83-1.83,3.09,3.09,0,0,1,2-2.93A3.32,3.32,0,0,0,44.7,13.12Zm2.12-3.66a6.23,6.23,0,0,0-1.06.09,6.8,6.8,0,0,1,5.71,6.68,6.72,6.72,0,0,1-4.94,6.4v1.64h2.12V22.63a6.73,6.73,0,0,0,5-6.4A6.81,6.81,0,0,0,46.82,9.46Z"/><path fill="#dc578f" fill-rule="evenodd" d="M42,49.68a4.86,4.86,0,0,0,9.72,0l2-4.68-6.87-3.75-6.52,3.09Z"/><path fill="#de75a4" fill-rule="evenodd" d="M37.1,41.26A4.86,4.86,0,1,0,42,49.67l4.87-8.43-5.19-3.36Z"/><path fill="#e38fb6" fill-rule="evenodd" d="M51.71,49.67a4.86,4.86,0,0,0,4.86-8.41l-5-3.43-4.77,3.42Z"/><path fill="#f5e165" fill-rule="evenodd" d="M44.61,28.49,43.73,26A1.3,1.3,0,0,1,45,24.27h3.65A1.3,1.3,0,0,1,49.92,26L49,28.48l-1.6,1.44Z"/><path fill="#dc578f" fill-rule="evenodd" d="M46.83,41.24,52.09,37l-.4-4.15A4.87,4.87,0,0,0,46.83,28h0A4.87,4.87,0,0,0,42,32.81v3.65Z"/><path fill="#de75a4" fill-rule="evenodd" d="M46.83,41.24h0Z"/><path fill="#e38fb6" fill-rule="evenodd" d="M37.09,41.24h9.74L42,32.82h0a4.85,4.85,0,0,0-6.63,1.78h0A4.86,4.86,0,0,0,37.09,41.24Z"/><path fill="#de75a4" fill-rule="evenodd" d="M51.71,32.82l-4.86,8.42h9.72a4.86,4.86,0,0,0-4.86-8.42Z"/><path fill="#faf3ae" fill-rule="evenodd" d="M52.35,41.25a5.52,5.52,0,1,1-5.52-5.52A5.52,5.52,0,0,1,52.35,41.25Z"/><path fill="#f5e165" fill-rule="evenodd" d="M46.83,35.73a5.43,5.43,0,0,0-1.5.21,5.51,5.51,0,0,1,0,10.61,5.85,5.85,0,0,0,1.5.22,5.52,5.52,0,0,0,0-11Z"/><path fill="#de75a4" fill-rule="evenodd" d="M55,40.2a4.88,4.88,0,0,1-1.25,1h0l0,0a4.85,4.85,0,0,1-1,8.86,4.86,4.86,0,0,0,3.83-8.86Z"/><path fill="#dc578f" fill-rule="evenodd" d="M54,32.17a4.94,4.94,0,0,0-1.26.2,4.86,4.86,0,0,1,1,8.87h2.78A4.86,4.86,0,0,0,54,32.17Z"/><path d="M4.79,48.4a5.85,5.85,0,0,0,6.69,2.7,5.86,5.86,0,0,0,11.37,0,5.87,5.87,0,0,0,5.7-9.86,5.88,5.88,0,0,0,1-7.14,5.86,5.86,0,0,0-6.7-2.7,5.88,5.88,0,0,0-2.26-3.32l.61-1.72a2.26,2.26,0,0,0-.26-2.1,2.3,2.3,0,0,0-1-.77v-.15a7.62,7.62,0,0,0,4.94-7.11,7.77,7.77,0,0,0-15.54,0,2.83,2.83,0,1,0,5.66,0,2.11,2.11,0,1,1,2.11,2.12,2.83,2.83,0,0,0-2.83,2.82v2.32a2.34,2.34,0,0,0-.94.77,2.27,2.27,0,0,0-.27,2.1l.62,1.72a5.88,5.88,0,0,0-2.26,3.32,5.86,5.86,0,0,0-5.69,9.85A5.88,5.88,0,0,0,4.79,48.4Zm4.07.79A3.8,3.8,0,0,1,6.52,47.4a3.85,3.85,0,0,1,1.26-5.16h3a6.53,6.53,0,0,0,2.36,4.09l-1.48,2.56A3.8,3.8,0,0,1,8.86,49.19Zm4.47-16.6a3.84,3.84,0,0,1,7.67,0l-1.47,2.56a6.43,6.43,0,0,0-2.36-.45,6.54,6.54,0,0,0-2.35.44Zm3.84,4.14a4.52,4.52,0,1,1-4.52,4.52A4.52,4.52,0,0,1,17.17,36.73Zm0,16.81a3.85,3.85,0,0,1-3.84-3.63l1.5-2.59a6.45,6.45,0,0,0,2.34.45,6.55,6.55,0,0,0,2.35-.45L21,49.88A3.85,3.85,0,0,1,17.17,53.54ZM27.81,47.4a3.83,3.83,0,0,1-5.06,1.5l-1.5-2.58a6.5,6.5,0,0,0,2.35-4.08h3A3.85,3.85,0,0,1,27.81,47.4ZM25.47,33.3a3.82,3.82,0,0,1,2.34,1.8,3.88,3.88,0,0,1-1.22,5.14h-3a6.55,6.55,0,0,0-2.34-4.06l1.49-2.59A3.83,3.83,0,0,1,25.47,33.3ZM17.16,20.35a4.12,4.12,0,1,0-4.11-4.12.83.83,0,0,1-1.66,0,5.77,5.77,0,0,1,11.54,0,5.68,5.68,0,0,1-4.22,5.44,1,1,0,0,0-.72,1v.64H16.33v-2.1A.83.83,0,0,1,17.16,20.35ZM15,25.69a.28.28,0,0,1,0-.28.38.38,0,0,1,.31-.14H19a.37.37,0,0,1,.31.14.27.27,0,0,1,0,.28l-.54,1.51a5.34,5.34,0,0,0-3.23,0ZM6.52,35.1a3.83,3.83,0,0,1,5.09-1.5l1.48,2.57a6.53,6.53,0,0,0-2.36,4.07h-3A3.83,3.83,0,0,1,6.52,35.1Z"/><path d="M14.88 42.25a1 1 0 001-1A1.29 1.29 0 0117.17 40a1 1 0 000-2 3.29 3.29 0 00-3.29 3.29A1 1 0 0014.88 42.25zM59.21 34.1a5.84 5.84 0 00-6.69-2.7 5.83 5.83 0 00-2.26-3.32l.61-1.72a2.3 2.3 0 00-.26-2.1 2.37 2.37 0 00-1-.77v-.15a7.64 7.64 0 004.94-7.11 7.77 7.77 0 00-15.54 0 2.83 2.83 0 105.66 0 2.11 2.11 0 112.11 2.12A2.83 2.83 0 0044 21.17v2.32a2.37 2.37 0 00-1 .77 2.29 2.29 0 00-.26 2.1l.62 1.72a5.88 5.88 0 00-2.26 3.32 5.86 5.86 0 00-5.69 9.85 5.86 5.86 0 005.69 9.85 5.86 5.86 0 0011.37 0 5.87 5.87 0 005.69-9.86A5.86 5.86 0 0059.21 34.1zm-4.07-.8a3.85 3.85 0 011.12 6.94h-3a6.54 6.54 0 00-2.33-4.06l1.49-2.59A3.83 3.83 0 0155.14 33.3zM46.83 45.77a4.52 4.52 0 114.52-4.52A4.52 4.52 0 0146.83 45.77zM43 32.59A3.85 3.85 0 0146.83 29h0a3.85 3.85 0 013.84 3.67l-1.48 2.56a6.35 6.35 0 00-2.36-.45 6.53 6.53 0 00-2.34.44zm3.83-12.24a4.12 4.12 0 10-4.11-4.12.83.83 0 11-1.66 0 5.77 5.77 0 0111.54 0 5.69 5.69 0 01-4.22 5.44 1 1 0 00-.72 1v.64H46v-2.1A.83.83 0 0146.83 20.35zm-2.16 5.34a.3.3 0 010-.28.38.38 0 01.31-.14h3.66a.37.37 0 01.31.14.28.28 0 010 .28l-.53 1.51a5.37 5.37 0 00-3.24 0zM36.19 35.1a3.83 3.83 0 015.08-1.5l1.49 2.57a6.53 6.53 0 00-2.36 4.07h-3a3.83 3.83 0 01-1.22-5.14zm2.34 14.09a3.77 3.77 0 01-2.34-1.79 3.85 3.85 0 011.25-5.16h3a6.53 6.53 0 002.36 4.09l-1.48 2.56A3.8 3.8 0 0138.53 49.19zm8.3 4.35A3.85 3.85 0 0143 49.91l1.49-2.59a6.36 6.36 0 004.7 0l1.48 2.56A3.85 3.85 0 0146.83 53.54zM57.48 47.4a3.83 3.83 0 01-5.06 1.5l-1.5-2.58a6.5 6.5 0 002.35-4.08h3a3.83 3.83 0 011.25 5.16z"/><path d="M46.83,38a3.28,3.28,0,0,0-3.28,3.29,1,1,0,0,0,2,0A1.28,1.28,0,0,1,46.83,40a1,1,0,0,0,0-2Z"/></g></svg>