<svg xmlns="http://www.w3.org/2000/svg" viewBox="0 0 24 24"><path fill="#8526fe" d="m21.71 6.24-3.95-3.95a1 1 0 0 0-.71-.29H15a1 1 0 0 0-.71.29L12 4.59l-2.29-2.3A1 1 0 0 0 9 2H7a1 1 0 0 0-.71.29l-3.95 4a1 1 0 0 0-.29.71v2a1 1 0 0 0 1 1h3v11a1 1 0 0 0 1 1h10a1 1 0 0 0 1-1V10H21a1 1 0 0 0 1-1V7a1 1 0 0 0-.29-.76Z" class="colord7dd58 svgShape"></path><path fill="#ad59d4" d="M11 6h2v4.05h-2z" class="color37314c svgShape"></path><path fill="#d8a353" d="m6.59 2 3.87 3.87a2.18 2.18 0 0 0 3.08 0L17.41 2Z" class="colorb5b541 svgShape"></path></svg>