<svg xmlns="http://www.w3.org/2000/svg" viewBox="0 0 130 130"><circle cx="65" cy="65" r="64" fill="#F34B50"/><path fill="#E53946" d="M71.118 9.84c0 .554-.45 1.004-1.005 1.004h-3.909A1.008 1.008 0 0 1 65.2 9.84c0-.553.453-1.005 1.005-1.005h3.91c.554 0 1.004.45 1.004 1.005zm2.868 0c0-.556.45-1.006 1.006-1.006h12.656a1.005 1.005 0 0 1 0 2.01H74.992c-.556 0-1.006-.45-1.006-1.005zm-44.284 9.867a1.005 1.005 0 1 0 0-2.01h-7.81a64.393 64.393 0 0 0-2.109 2.01h9.92zm9.097-1.005c0 .555-.45 1.005-1.005 1.005h-4.123c-.553 0-1.005-.453-1.005-1.005s.452-1.006 1.005-1.006h4.123c.555 0 1.005.45 1.005 1.006zm-26.83 70.27H5.66c.274.677.559 1.346.855 2.01h5.454a1.005 1.005 0 1 0 0-2.01zm4.52 2.01h-.947a1.005 1.005 0 0 1 0-2.01h.946a1.005 1.005 0 0 1 0 2.01zm74.655 3.377c0-.555.45-1.005 1.005-1.005h16.008c.553 0 1.005.452 1.005 1.005s-.452 1.005-1.005 1.005H92.149c-.555 0-1.005-.45-1.005-1.005zm-1.561 0c0 .555-.45 1.005-1.005 1.005H83.77a1.005 1.005 0 1 1 0-2.01h4.808c.555 0 1.005.45 1.005 1.005zm-67.929-40.8c0-.556.45-1.006 1.005-1.006h7.501c.553 0 1.005.452 1.005 1.005 0 .553-.452 1.005-1.005 1.005h-7.5c-.556 0-1.006-.45-1.006-1.005zm-1.561 0c0 .554-.45 1.004-1.006 1.004h-3.476a1.005 1.005 0 0 1 0-2.01h3.476c.556 0 1.006.45 1.006 1.005zm-6.62 0c0 .554-.45 1.004-1.006 1.004h-.733a1.005 1.005 0 0 1 0-2.01h.733c.555 0 1.005.45 1.005 1.005zm115.372 15.789c-.04.68-.1 1.35-.16 2.01h-9.88a1.005 1.005 0 1 1 0-2.01h10.04zm-12.61 1.008c0 .555-.45 1.005-1.005 1.005h-4.808a1.005 1.005 0 0 1 0-2.01h4.808c.555 0 1.005.45 1.005 1.005zm-75.844 53.732h4.523a1.005 1.005 0 0 0 0-2.01h-8.85a63.635 63.635 0 0 0 4.327 2.01zm17.618-2.01h-8.956a1.005 1.005 0 0 0 0 2.01h8.956c.553 0 1.005-.453 1.005-1.006 0-.552-.452-1.005-1.005-1.005zm21.76-7.016h12.75a1.005 1.005 0 1 1 0 2.01H79.77a1.008 1.008 0 0 1-1.005-1.005c0-.552.453-1.005 1.006-1.005zm16.368 1.005c0-.555.45-1.005 1.006-1.005h1.08a1.005 1.005 0 0 1 0 2.01h-1.08c-.555 0-1.006-.45-1.006-1.005zm14.078-78.399c0-.555.45-1.005 1.005-1.005h1.671a1.005 1.005 0 1 1 0 2.01h-1.671c-.555 0-1.005-.45-1.005-1.005zm7.346 1.006h5.771a63.383 63.383 0 0 0-.944-2.01h-4.827a1.005 1.005 0 1 0 0 2.01z"/><path fill="#E53946" d="M87.203 91.063a4.932 4.932 0 1 1-9.866 0 4.937 4.937 0 0 1 4.933-4.94 4.934 4.934 0 0 1 4.933 4.94zm-39.082 0a4.932 4.932 0 1 1-9.866 0 4.937 4.937 0 0 1 4.933-4.94 4.934 4.934 0 0 1 4.933 4.94z"/><path fill="#E53946" d="M43.636 70.451a27.404 27.404 0 0 0-2.144 10.66c0 13.533 9.561 33.093 21.337 33.093 11.777 0 21.338-19.56 21.338-33.094 0-3.827-.784-7.433-2.144-10.659H43.636z"/><path fill="#E53946" d="M64.157 85.27c1.237.048 2.294-.552 3.22-1.258.916-.728 1.892-1.557 3.033-2.108 2.245-1.118 4.905-1.46 7.273-.792-1.225.027-2.418.126-3.571.398-1.15.272-2.267.649-3.31 1.18-1.067.49-1.97 1.233-3.05 1.88-1.043.64-2.397 1.128-3.595.7zm13.59.827s-1.798 4.03-5.038 4.82c-3.25.792-6.701-1.959-6.701-1.959s1.797-4.03 5.048-4.822c3.24-.79 6.69 1.96 6.69 1.96z"/><path fill="#E53946" d="M74.412 86.647c0 1.81-1.476 3.269-3.27 3.269a3.263 3.263 0 0 1-3.268-3.27c0-.175.018-.35.053-.526.808-.862 1.845-1.67 3.128-1.987a5.625 5.625 0 0 1 2.021-.088 3.196 3.196 0 0 1 1.336 2.602z"/><path fill="#E53946" d="M72.622 86.651c0 .826-.667 1.484-1.483 1.484a1.48 1.48 0 1 1 0-2.959 1.48 1.48 0 0 1 1.483 1.475z"/><path fill="#E53946" d="M77.752 86.102s-.844 1.88-2.408 3.304c1.177-1.3 1.793-2.69 1.793-2.69s-3.463-2.758-6.697-1.967c-1.002.245-1.863.79-2.566 1.423.808-.896 1.88-1.723 3.181-2.039 3.234-.79 6.697 1.969 6.697 1.969zm-16.25-.833c-1.237.049-2.294-.55-3.22-1.257-.916-.728-1.892-1.557-3.032-2.108-2.245-1.118-4.906-1.46-7.274-.792 1.225.027 2.418.126 3.571.398 1.15.272 2.267.649 3.31 1.18 1.067.49 1.97 1.233 3.05 1.88 1.043.64 2.397 1.128 3.596.7zm-13.59.828s1.798 4.03 5.038 4.82c3.25.792 6.701-1.959 6.701-1.959s-1.797-4.03-5.048-4.822c-3.24-.79-6.69 1.96-6.69 1.96z"/><path fill="#E53946" d="M51.247 86.647c0 1.81 1.476 3.269 3.27 3.269a3.263 3.263 0 0 0 3.268-3.27c0-.175-.017-.35-.053-.526-.808-.862-1.845-1.67-3.128-1.987a5.625 5.625 0 0 0-2.021-.088 3.196 3.196 0 0 0-1.336 2.602z"/><path fill="#E53946" d="M53.037 86.651c0 .826.667 1.484 1.483 1.484a1.48 1.48 0 1 0 0-2.959 1.48 1.48 0 0 0-1.483 1.475z"/><path fill="#E53946" d="M47.908 86.102s.843 1.88 2.407 3.304c-1.177-1.3-1.793-2.69-1.793-2.69s3.463-2.758 6.697-1.967c1.002.245 1.863.79 2.566 1.423-.808-.896-1.88-1.723-3.181-2.039-3.234-.79-6.696 1.969-6.696 1.969zM84.695 67.55v10.823c0 .614-.402 1.158-.997 1.313-5.917 1.55-13.102 2.455-20.868 2.455-7.756 0-14.949-.905-20.868-2.445a1.347 1.347 0 0 1-.998-1.314v-10.84c0-.616.403-1.16.999-1.315 5.918-1.54 13.111-2.445 20.867-2.445 7.766 0 14.95.905 20.868 2.455.595.155.997.699.997 1.313z"/><path fill="#E53946" d="M74.588 70.034v5.859c0 1.13-.838 2.097-1.962 2.219-3.142.34-6.427.52-9.797.52-3.369 0-6.654-.18-9.796-.52-1.124-.122-1.962-1.089-1.962-2.22v-5.858c0-1.13.838-2.097 1.962-2.219a91.25 91.25 0 0 1 9.796-.52c3.37 0 6.655.18 9.797.52 1.124.122 1.962 1.089 1.962 2.219z"/><path fill="#E53946" d="m48.74 69.444-4.224 10.954-2.938-9.651L28.431 77.6l5.455-13.986h-11.19l12.728-10.21-13.287-4.337 15.805-8.812-8.392-9.93 15.945 3.916-5.315-13.148 17.344 11.19 5.874-13.148 6.574 10.07 10.35-8.671 2.378 10.49 17.204-3.077-8.112 11.47 18.043 11.748-11.33 2.378 15.106 10.91-13.008.839 6.015 7.413-9.931-3.077 3.357 8.112-9.092-8.532.98 12.169L81 67.414a8.298 8.298 0 0 0-5.339-3.103c-6.496-.94-13.23-.866-20.122-.124-3.068.33-5.688 2.378-6.798 5.257z"/><path fill="#E53946" d="m45.411 69.444-3.696 10.954-2.57-9.651L27.643 77.6l4.772-13.986h-9.789l11.135-10.21-11.624-4.337 13.827-8.812-7.342-9.93 13.95 3.916-4.65-13.148 15.173 11.19 5.14-13.148 5.75 10.07 9.056-8.671 2.08 10.49 15.051-3.077-7.097 11.47L98.86 51.164l-9.912 2.378 13.216 10.91-11.38.839 5.262 7.413-8.688-3.077 2.937 8.112-7.954-8.532.856 12.169-9.563-13.963c-1.151-1.68-2.823-2.797-4.67-3.103-5.684-.94-11.575-.866-17.605-.124-2.684.33-4.976 2.378-5.948 5.257zM75 110.192a.438.438 0 0 1-.314-.133l-5.547-5.686a.44.44 0 1 1 .628-.615l5.547 5.687a.44.44 0 0 1-.314.747zm5.345-4.59a.44.44 0 0 1-.244-.074l-8.118-5.413a.44.44 0 0 1 .487-.73l8.119 5.412a.44.44 0 0 1-.244.805zm2.26-5.413a.437.437 0 0 1-.186-.042l-8.7-4.11a.439.439 0 1 1 .373-.795l8.7 4.11a.439.439 0 0 1-.186.837zM50.66 110.192a.438.438 0 0 0 .314-.133l5.547-5.686a.44.44 0 1 0-.628-.615l-5.547 5.687a.44.44 0 0 0 .314.747zm-5.345-4.59a.44.44 0 0 0 .244-.074l8.118-5.413a.44.44 0 0 0-.487-.73l-8.119 5.412a.44.44 0 0 0 .244.805zm-2.26-5.413a.437.437 0 0 0 .186-.042l8.701-4.11a.439.439 0 1 0-.374-.795l-8.7 4.11a.439.439 0 0 0 .186.837zM65.469 95.677c0 .828-1.296 2.412-2.895 2.412-1.6 0-2.896-1.584-2.896-2.412 2.05.59 3.98.59 5.79 0zM64.486 101.724h2.992a.553.553 0 1 1 0 1.106h-2.992c-2.261 0-4.536.516-6.577 1.49a.552.552 0 1 1-.478-.998 16.47 16.47 0 0 1 7.055-1.598z"/><path fill="#F4BD98" d="M85.533 89.393a4.932 4.932 0 1 1-9.865 0 4.937 4.937 0 0 1 4.932-4.939 4.934 4.934 0 0 1 4.933 4.94zm-39.082 0a4.932 4.932 0 1 1-9.866 0 4.937 4.937 0 0 1 4.933-4.939 4.934 4.934 0 0 1 4.933 4.94z"/><path fill="#FFCEAB" d="M41.967 68.782a27.404 27.404 0 0 0-2.145 10.659c0 13.533 9.562 33.094 21.338 33.094 11.776 0 21.338-19.56 21.338-33.094 0-3.827-.785-7.433-2.144-10.66H41.967z"/><path fill="#F4BD98" d="M62.487 83.6c1.238.048 2.294-.551 3.22-1.258.917-.727 1.893-1.557 3.033-2.107 2.245-1.118 4.905-1.46 7.273-.793-1.224.027-2.418.127-3.57.399-1.15.271-2.268.648-3.31 1.18-1.068.49-1.97 1.232-3.05 1.88-1.044.64-2.397 1.127-3.596.699z"/><path fill="#FFF" d="M76.077 84.427s-1.798 4.03-5.037 4.82c-3.251.792-6.702-1.958-6.702-1.958s1.798-4.03 5.049-4.823c3.24-.79 6.69 1.961 6.69 1.961z"/><path fill="#168DE2" d="M72.743 84.977c0 1.81-1.477 3.27-3.27 3.27a3.263 3.263 0 0 1-3.269-3.27c0-.175.018-.351.053-.527.809-.861 1.846-1.67 3.129-1.986a5.625 5.625 0 0 1 2.02-.088 3.196 3.196 0 0 1 1.337 2.601z"/><path fill="#0A469E" d="M70.953 84.982c0 .825-.667 1.483-1.484 1.483a1.48 1.48 0 1 1 0-2.959 1.48 1.48 0 0 1 1.484 1.476z"/><path fill="#386384" d="M76.082 84.432s-.844 1.881-2.408 3.305c1.178-1.301 1.793-2.69 1.793-2.69s-3.463-2.759-6.697-1.968c-1.002.246-1.863.79-2.566 1.424.809-.897 1.88-1.723 3.182-2.04 3.234-.79 6.696 1.97 6.696 1.97z"/><path fill="#F4BD98" d="M59.833 83.6c-1.238.048-2.294-.551-3.22-1.258-.917-.727-1.893-1.557-3.033-2.107-2.245-1.118-4.905-1.46-7.273-.793 1.224.027 2.418.127 3.57.399 1.15.271 2.268.648 3.31 1.18 1.068.49 1.97 1.232 3.05 1.88 1.044.64 2.398 1.127 3.596.699z"/><path fill="#FFF" d="M46.243 84.427s1.798 4.03 5.037 4.82c3.251.792 6.702-1.958 6.702-1.958s-1.798-4.03-5.049-4.823c-3.24-.79-6.69 1.961-6.69 1.961z"/><path fill="#168DE2" d="M49.577 84.977c0 1.81 1.477 3.27 3.27 3.27a3.263 3.263 0 0 0 3.269-3.27c0-.175-.018-.351-.053-.527-.809-.861-1.846-1.67-3.129-1.986a5.625 5.625 0 0 0-2.02-.088 3.196 3.196 0 0 0-1.337 2.601z"/><path fill="#0A469E" d="M51.367 84.982c0 .825.667 1.483 1.484 1.483s1.483-.658 1.483-1.483a1.48 1.48 0 0 0-1.483-1.475 1.48 1.48 0 0 0-1.484 1.475z"/><path fill="#386384" d="M46.238 84.432s.844 1.881 2.408 3.305c-1.178-1.301-1.793-2.69-1.793-2.69s3.463-2.759 6.697-1.968c1.002.246 1.863.79 2.566 1.424-.809-.897-1.88-1.723-3.182-2.04-3.233-.79-6.696 1.97-6.696 1.97z"/><path fill="#4A749B" d="M83.025 65.88v10.823c0 .615-.402 1.158-.996 1.314-5.918 1.55-13.103 2.455-20.869 2.455-7.755 0-14.948-.905-20.867-2.446a1.347 1.347 0 0 1-.998-1.313V65.872c0-.616.403-1.16.998-1.314 5.919-1.54 13.112-2.446 20.867-2.446 7.766 0 14.951.906 20.869 2.455.594.156.996.7.996 1.314z"/><path fill="#EDEDED" d="M72.918 68.364v5.86c0 1.13-.838 2.096-1.961 2.218-3.142.34-6.428.52-9.797.52-3.37 0-6.655-.18-9.797-.52-1.123-.122-1.962-1.089-1.962-2.219v-5.859c0-1.13.839-2.097 1.962-2.218a91.25 91.25 0 0 1 9.797-.52c3.37 0 6.655.18 9.797.52 1.123.121 1.961 1.088 1.961 2.218z"/><path fill="#FAB941" d="m47.071 67.775-4.225 10.953-2.937-9.65L26.76 75.93l5.455-13.987h-11.19l12.729-10.21-13.288-4.336 15.805-8.812-8.392-9.93 15.945 3.915-5.315-13.147 17.344 11.19 5.875-13.148 6.573 10.07 10.35-8.672 2.379 10.49 17.204-3.077-8.113 11.47 18.043 11.749-11.33 2.377 15.107 10.91-13.008.84 6.014 7.413-9.93-3.078 3.356 8.113-9.091-8.532.979 12.168L79.33 65.744a8.298 8.298 0 0 0-5.338-3.102c-6.497-.941-13.23-.866-20.122-.124-3.069.33-5.688 2.377-6.799 5.257z"/><path fill="#FAD553" d="m43.742 67.775-3.696 10.953-2.57-9.65-11.502 6.853 4.772-13.987h-9.79l11.136-10.21-11.625-4.336 13.827-8.812-7.341-9.93 13.95 3.915-4.65-13.147 15.173 11.19 5.14-13.148 5.75 10.07 9.055-8.672 2.08 10.49 15.052-3.077-7.098 11.47 15.786 11.749-9.912 2.377 13.215 10.91-11.38.84 5.262 7.413-8.688-3.078 2.937 8.113-7.954-8.532.857 12.168-9.564-13.963c-1.15-1.68-2.823-2.796-4.67-3.102-5.684-.941-11.574-.866-17.604-.124-2.685.33-4.976 2.377-5.948 5.257z"/><path fill="#705C85" d="M73.33 108.522a.438.438 0 0 1-.314-.132l-5.548-5.687a.44.44 0 1 1 .628-.614l5.548 5.686a.44.44 0 0 1-.314.747zm5.345-4.59a.44.44 0 0 1-.244-.073l-8.119-5.413a.44.44 0 0 1 .488-.731l8.118 5.412a.44.44 0 0 1-.243.805zm2.26-5.412a.437.437 0 0 1-.187-.042l-8.7-4.11a.439.439 0 1 1 .374-.795l8.7 4.11a.439.439 0 0 1-.187.837zM48.99 108.522a.438.438 0 0 0 .314-.132l5.548-5.687a.44.44 0 1 0-.628-.614l-5.548 5.686a.44.44 0 0 0 .314.747zm-5.345-4.59a.44.44 0 0 0 .244-.073l8.119-5.413a.44.44 0 0 0-.488-.731l-8.118 5.412a.44.44 0 0 0 .243.805zm-2.26-5.412a.437.437 0 0 0 .187-.042l8.7-4.11a.439.439 0 1 0-.374-.795l-8.7 4.11a.439.439 0 0 0 .187.837z"/><path fill="#F4BD98" d="M63.8 94.007c0 .829-1.297 2.413-2.896 2.413s-2.895-1.584-2.895-2.413c2.05.59 3.98.59 5.79 0zM62.817 100.054h2.991a.553.553 0 1 1 0 1.107h-2.991c-2.262 0-4.537.515-6.578 1.49a.552.552 0 1 1-.478-.998 16.47 16.47 0 0 1 7.056-1.599z"/></svg>